<svg id="Layer_1" data-name="Layer 1" xmlns="http://www.w3.org/2000/svg" viewBox="0 0 500 500"><path d="M403.54,103.39s7.7,7.61,4.08,14.84l-3.15,4.64-20.9-10.69,4.39-7.86s3.78-6.31,10.22-3.62c0,0,0,0,0,0l1.43.72C402,102.59,403.54,103.39,403.54,103.39Z" style="fill:#1c1d1d"/><path d="M404.47,122.87s3.8,1.66,1.3,6.49-6.13,3.71-6.13,3.71L379,122.54a176.63,176.63,0,0,0-14.57-12.6c1.62-2.8,6.24-4.33,6.24-4.33l12.86,6.57Z" style="fill:#084f76"/><path d="M399.64,133.07l-4,7.84A174.83,174.83,0,0,0,379,122.54Z" style="fill:#dc810b"/><path d="M395.6,140.91a176.59,176.59,0,0,1-80.8,275.41l-.11-59.93H354c9.48,0,8.68-10,8.4-12.07,0-.23-.05-.36-.05-.36V315c0-7.88-8.35-8.16-8.35-8.16H314.69v-26.8l1.54-1.14c7-5.22,13.67-10.26,13.67-10.26Z" style="fill:#c2e4f3"/><path d="M395.6,140.91,329.9,268.66l-20.8-10.53,69.79-135.66.15.07A174.83,174.83,0,0,1,395.6,140.91Z" style="fill:#dc810b"/><path d="M398.18,100.7C391.74,98,388,104.32,388,104.32l-4.39,7.86-12.86-6.57,4.08-6.49s5.75-6.77,12.79-3.52C391.09,97.21,395.08,99.16,398.18,100.7Z" style="fill:#2f3031"/><path d="M364.47,109.94A176.63,176.63,0,0,1,379,122.54l-.15-.07h0l-13-6.64C363.58,113.49,363.56,111.52,364.47,109.94Z" style="fill:#084f76"/><polygon points="378.89 122.46 378.89 122.47 309.1 258.13 296.2 251.59 311.31 222.16 365.88 115.81 378.89 122.46" style="fill:#ee9411"/><path d="M364.47,109.94c-.91,1.58-.89,3.55,1.41,5.88L311.31,222.16S300.4,199.25,288,193.84h0c-6-4-17.22-4.19-17.22-4.19H90.42a176.6,176.6,0,0,1,274.05-79.7Z" style="fill:#c2e4f3"/><path d="M347.15,332.65s.37,5.37-4.45,5.37a3.72,3.72,0,0,1-4.07-4.45V306.86h8.52Z" style="fill:#ba1818"/><path d="M309.1,258.13l20.8,10.53s-6.64,5-13.67,10.26l-7.13-3.46Z" style="fill:#939393"/><path d="M326,319.88s.37,5.38-4.45,5.38a3.73,3.73,0,0,1-4.09-4.45V306.86H326Z" style="fill:#ba1818"/><path d="M362.36,344s0,.13.05.36H132.55V315.21a7.69,7.69,0,0,1,2-5.38,9,9,0,0,1,4.84-2.59,17.13,17.13,0,0,1,3.75-.38h5.75v26.71A3.73,3.73,0,0,0,153,338c4.83,0,4.45-5.37,4.45-5.37V306.86h12.81v13.95a3.72,3.72,0,0,0,4.07,4.45c4.82,0,4.45-5.38,4.45-5.38v-13h12.43v13.95a3.73,3.73,0,0,0,4.08,4.45c4.83,0,4.46-5.38,4.46-5.38v-13h12.42v26.71A3.73,3.73,0,0,0,216.2,338c4.82,0,4.45-5.37,4.45-5.37V306.86h12.5v13.95a3.73,3.73,0,0,0,4.08,4.45c4.83,0,4.46-5.38,4.46-5.38v-13h12.49v13.95a3.73,3.73,0,0,0,4.09,4.45c4.81,0,4.45-5.38,4.45-5.38v-13h13v26.71a3.73,3.73,0,0,0,4.08,4.45c4.83,0,4.45-5.37,4.45-5.37V306.86h12v13.95a3.74,3.74,0,0,0,4.08,4.45c4.83,0,4.46-5.38,4.46-5.38v-13h12.69v13.95a3.73,3.73,0,0,0,4.09,4.45c4.82,0,4.45-5.38,4.45-5.38v-13h12.62v26.71A3.72,3.72,0,0,0,342.7,338c4.82,0,4.45-5.37,4.45-5.37V306.86H354s8.35.28,8.35,8.16Z" style="fill:#e5332f"/><path d="M309.1,275.46l7.13,3.46-1.54,1.14c-6.21,4.6-12.35,9.07-14.2,10.11-4.09,2.32-4.29-1.11-4.29-1.11V269.17Z" style="fill:#2f3031"/><path d="M314.69,356.39l.11,59.93c-2.88,1-5.81,1.95-8.76,2.82-11.28-1.4-21.66-3.05-31.22-4.87v-.75l.17-57.13Z" style="fill:#1574b9"/><path d="M314.69,280.06v26.8H274.63V276.81s.46-4.63-5.75-4.63h-139c-3.32-25.53,1.59-44.3,2.23-46.62l28.4,5.55,119.32,23.35s-26-26.71-8.71-53.6c5.35-8.34,11.25-9.46,16.85-7,12.44,5.41,23.35,28.32,23.35,28.32L296.2,251.59v37.47s.2,3.43,4.29,1.11C302.34,289.13,308.48,284.66,314.69,280.06Z" style="fill:#1574b9"/><polygon points="309.1 258.13 309.1 275.45 296.2 269.17 296.2 251.59 309.1 258.13" style="fill:#b3b5b7"/><path d="M304.78,319.88s.37,5.38-4.46,5.38a3.74,3.74,0,0,1-4.08-4.45V306.86h8.54Z" style="fill:#ba1818"/><path d="M284.27,332.65s.38,5.37-4.45,5.37a3.73,3.73,0,0,1-4.08-4.45V306.86h8.53Z" style="fill:#ba1818"/><path d="M270.74,189.64s11.19.24,17.22,4.19h0c-5.6-2.44-11.5-1.32-16.85,7-17.26,26.89,8.71,53.6,8.71,53.6L160.5,231.11s-13.29-7.81-11.26-24,17.26-17.43,17.26-17.43Z" style="fill:#6fc8ec"/><path d="M306,419.14a177,177,0,0,1-31.22,6.1v-11C284.38,416.09,294.76,417.74,306,419.14Z" style="fill:#1574b9"/><path d="M275,356.39l-.17,57.13v.75c-3.11-.6-6.13-1.21-9.06-1.85v-17.6H237.22V405c-2.94-.93-5.77-1.86-8.46-2.81v-8.28H208.57a141.58,141.58,0,0,1-17.78-10V356.39h9.09l.38,28.57,28-.38-.19-28.19h9.64l.56,28.38h27.08l.38-28.38Z" style="fill:#6fc8ec"/><path d="M268.88,272.18c6.21,0,5.75,4.63,5.75,4.63v30.05h-8.9v-26H237v26h-8.72v-25.6H199.88s-.37,25.6-.18,25.6h-8.54V281.08H162.6v25.78h-9.09v-25.6H131.38c-.63-3.11-1.12-6.14-1.51-9.08Z" style="fill:#6fc8ec"/><path d="M265.76,412.42V424.3H237.22V405C245.71,407.63,255.19,410.15,265.76,412.42Z" style="fill:#1665ae"/><path d="M265.76,394.82v17.6c-10.57-2.27-20-4.79-28.54-7.45V394.82Z" style="fill:#1665ae"/><path d="M265.76,424.3V412.42c2.93.64,5.95,1.25,9.06,1.85v11a178.32,178.32,0,0,1-37.7-.12l.1-.82Z" style="fill:#6fc8ec"/><path d="M265.73,306.67v.19H237v-26h28.75Z" style="fill:#1574b9"/><polygon points="265.73 356.39 265.35 384.77 238.27 384.77 237.72 356.39 265.73 356.39" style="fill:#1574b9"/><path d="M262.72,319.88s.36,5.38-4.45,5.38a3.73,3.73,0,0,1-4.09-4.45V306.86h8.54Z" style="fill:#ba1818"/><path d="M241.69,319.88s.37,5.38-4.46,5.38a3.73,3.73,0,0,1-4.08-4.45V306.86h8.54Z" style="fill:#ba1818"/><path d="M228.76,402.16v21.2H225A174.43,174.43,0,0,1,200.21,417V393.88h8.36A200.72,200.72,0,0,0,228.76,402.16Z" style="fill:#1665ae"/><path d="M228.76,393.88v8.28a200.72,200.72,0,0,1-20.19-8.28Z" style="fill:#1665ae"/><path d="M228.76,423.36v-21.2c2.69.95,5.52,1.88,8.46,2.81V424.3l-.1.82q-6.13-.66-12.15-1.76Z" style="fill:#6fc8ec"/><path d="M228.26,281.26v25.6H199.7c-.19,0,.18-25.6.18-25.6Z" style="fill:#1574b9"/><polygon points="228.07 356.39 228.26 384.58 200.25 384.96 199.88 356.39 228.07 356.39" style="fill:#1574b9"/><path d="M220.65,332.65S221,338,216.2,338a3.73,3.73,0,0,1-4.08-4.45V306.86h8.53Z" style="fill:#ba1818"/><path d="M208.57,393.88h-8.36V417q-4.77-1.62-9.42-3.48V393.48H162.6v5.67q-4.47-2.79-8.72-5.85v-.38h-.52q-5.62-4-10.91-8.52h11.24v-28h8.91V385h28.19v-1A141.58,141.58,0,0,0,208.57,393.88Z" style="fill:#6fc8ec"/><path d="M199.7,319.88s.37,5.38-4.46,5.38a3.73,3.73,0,0,1-4.08-4.45V306.86h8.54Z" style="fill:#ba1818"/><path d="M191.16,281.08v25.78H162.6V281.08Z" style="fill:#1574b9"/><path d="M190.79,393.48v20.06a175.52,175.52,0,0,1-28.19-14.39v-5.67Z" style="fill:#1665ae"/><path d="M190.79,383.91v1H162.6V356.39h2.56C165.78,358.27,170.46,370.41,190.79,383.91Z" style="fill:#1665ae"/><path d="M190.79,356.39v27.52c-20.33-13.5-25-25.64-25.63-27.52Z" style="fill:#1574b9"/><path d="M178.73,319.88s.37,5.38-4.45,5.38a3.72,3.72,0,0,1-4.07-4.45V306.86h8.52Z" style="fill:#ba1818"/><path d="M199.88,356.39H142.57a11,11,0,0,1-4-1.05c-2.37-1.12-5-3.44-5.78-8.25a16.83,16.83,0,0,1-.21-2.76H362.41c.28,2.07,1.08,12.07-8.4,12.07H199.88Z" style="fill:#ba1818"/><path d="M132.1,225.56,83.17,216a173.41,173.41,0,0,1,7.25-26.35H166.5s-15.21,1.2-17.26,17.43,11.26,24,11.26,24Z" style="fill:#1665ae"/><path d="M157.4,332.65S157.78,338,153,338a3.73,3.73,0,0,1-4.08-4.45V306.86h8.53Z" style="fill:#ba1818"/><path d="M153.69,356.39v28H142.45a177.65,177.65,0,0,1-16.73-16.19l.15-12.75h12.61l.06-.12a11,11,0,0,0,4,1.05Z" style="fill:#1665ae"/><path d="M153.51,306.5v.36H143.12a17.13,17.13,0,0,0-3.75.38l0-.07a134.32,134.32,0,0,1-8-25.91h22.13Z" style="fill:#1574b9"/><path d="M139.35,307.17l0,.07a9,9,0,0,0-4.84,2.59H125V281.26h6.43A134.32,134.32,0,0,0,139.35,307.17Z" style="fill:#1665ae"/><path d="M132.76,347.09c.73,4.81,3.41,7.13,5.78,8.25l-.06.12H125.87l-.15,12.75a174.9,174.9,0,0,1-15.87-20.27h5.39V318.46H93.87c-1.08-2.58-2.11-5.2-3.09-7.83h25.71V281.15H88V302.3a175.62,175.62,0,0,1-6.56-30.12h48.48c.39,2.94.88,6,1.51,9.08H125v28.57h9.58a7.69,7.69,0,0,0-2,5.38v3.71h-7.42v28.2h7.42Z" style="fill:#6fc8ec"/><path d="M132.55,344.33a16.83,16.83,0,0,0,.21,2.76l-.21,0h-7.42v-28.2h7.42Z" style="fill:#1665ae"/><path d="M83.17,216l48.93,9.57c-.64,2.32-5.55,21.09-2.23,46.62H81.39A178.57,178.57,0,0,1,80,249.63,176.67,176.67,0,0,1,83.17,216Z" style="fill:#1665ae"/><path d="M116.49,281.15v29.48H90.78c-1-2.74-2-5.53-2.83-8.33V281.15Z" style="fill:#1665ae"/><path d="M115.24,318.46v29.48h-5.39a176.39,176.39,0,0,1-16-29.48Z" style="fill:#1665ae"/><path d="M427.67,232l9.88,30-14.26,28.24-30.05,9.89L365,286l-9.89-30.06,14.26-28.23,30.06-9.89Zm-1.91,29.21-7.09-21.53L398.44,229.5l-21.53,7.08-10.22,20.24,7.08,21.53L394,288.57l21.53-7.09Z" style="fill:#ba1818"/><path d="M418.67,239.72l7.09,21.53-10.22,20.23L394,288.57l-20.24-10.22-7.08-21.53,10.22-20.24,21.53-7.08Zm-5.4,13.38a17.29,17.29,0,1,0-11,21.82A17.28,17.28,0,0,0,413.27,253.1Z" style="fill:#e5332f"/><path d="M391.45,242.08a17.29,17.29,0,1,1-11,21.82A17.28,17.28,0,0,1,391.45,242.08Zm15.88,13.22a11.19,11.19,0,1,0-7.14,14.13A11.19,11.19,0,0,0,407.33,255.3Z" style="fill:#ba1818"/><path d="M393.19,248.16a11.2,11.2,0,1,1-7.13,14.13A11.19,11.19,0,0,1,393.19,248.16Z" style="fill:#f2f2f2"/><polygon points="399.43 217.78 369.37 227.67 355.11 255.9 365 285.96 393.24 300.22 423.29 290.33 437.55 262.09 427.67 232.04 399.43 217.78" style="fill:none;stroke:#ba1818;stroke-miterlimit:10"/><polygon points="398.44 229.5 376.91 236.58 366.69 256.82 373.77 278.35 394.01 288.57 415.54 281.48 425.76 261.25 418.67 239.72 398.44 229.5" style="fill:none;stroke:#ba1818;stroke-miterlimit:10"/><circle cx="396.85" cy="258.5" r="17.29" style="fill:none;stroke:#ba1818;stroke-miterlimit:10"/><path d="M407.33,255.3a11.19,11.19,0,1,1-14.14-7.14A11.19,11.19,0,0,1,407.33,255.3Z" style="fill:none;stroke:#ba1818;stroke-miterlimit:10"/><path d="M432.53,175.68l2,22.36L416.18,211l-20.37-9.44-2-22.36,18.36-12.92Zm-7.29,17.57A11.81,11.81,0,1,0,409.55,199,11.82,11.82,0,0,0,425.24,193.25Z" style="fill:#1574b9"/><path d="M419.49,177.56a11.82,11.82,0,1,1-15.69,5.76A11.82,11.82,0,0,1,419.49,177.56Z" style="fill:#f2f2f2"/><path d="M275.61,425H225l8.94-32-17.48-21.27,17.48-20.85-28.3-18.22,37.34,6.84s20.17,2.84,23,26.75S275.61,425,275.61,425Z" style="fill:#1665ae"/><polygon points="233.89 350.86 216.41 371.71 233.89 392.98 224.95 425.01 205.59 425.01 205.59 332.64 233.89 350.86" style="fill:#183b6a"/><polygon points="228.11 223.92 228.11 241.38 212.93 241.38 197.25 241.38 160.92 241.38 124.61 241.38 108.92 241.38 93.75 241.38 93.75 223.92 105.38 223.92 147.38 223.92 160.92 223.92 174.47 223.92 216.47 223.92 228.11 223.92" style="fill:#f2f2f2"/><path d="M190.22,302.45c-6.48,6.7-15.86,12-29.3,12s-22.81-5.34-29.29-12.05C120.72,291.16,118,276,118,276s-12.69,2-14.44-8.86-3.52-20,5.34-25.8l12.39,21.5,3.29-21.5h72.64l3.28,21.5,12.4-21.5c8.85,5.81,7.08,14.92,5.34,25.8S203.82,276,203.82,276,201.13,291.17,190.22,302.45Zm-5.14-49.71c2.87-2.83-2.92-6.06-7.5-6.06-5.93,0-8.89,3.1-8.89,3.1s-1.35,1.07,0,3.36,3.51-.94,8.35-.94S182.2,255.57,185.08,252.74ZM179.8,263a3.74,3.74,0,1,0-3.74,3.75A3.73,3.73,0,0,0,179.8,263Zm-18.26,32.66c4.58,0,10.37-3.23,7.49-6.06s-3.18.54-8,.54-7-3.23-8.35-.94,0,3.36,0,3.36S155.62,295.65,161.54,295.65ZM153,252.74c2.86-2.83-2.92-6.06-7.5-6.06-5.93,0-8.89,3.1-8.89,3.1s-1.35,1.07,0,3.36,3.5-.94,8.35-.94S150.12,255.57,153,252.74ZM148.62,263a3.74,3.74,0,1,0-3.73,3.75A3.72,3.72,0,0,0,148.62,263Z" style="fill:#f7c384"/><path d="M174.47,167.5c43.78,9.1,42,56.42,42,56.42h-42Z" style="fill:#d3d3d3"/><polygon points="212.93 241.38 200.53 262.88 197.25 241.38 212.93 241.38" style="fill:#3f3f3f"/><polygon points="205.59 332.64 205.59 425.01 173.47 425.01 160.92 348.01 181.62 365.66 205.59 332.64" style="fill:#6fc8ec"/><polygon points="205.59 332.64 181.62 365.66 160.92 348.01 190.22 318.41 205.59 332.64" style="fill:#eaf6fb"/><path d="M190.22,302.45v16L160.92,348l-29.29-29.6v-16c6.48,6.71,15.86,12.05,29.29,12.05S183.74,309.15,190.22,302.45Z" style="fill:#f1b26f"/><path d="M177.58,246.68c4.58,0,10.37,3.23,7.5,6.06s-3.19-.54-8-.54-7,3.23-8.35.94,0-3.36,0-3.36S171.65,246.68,177.58,246.68Z" style="fill:#3f3f3f"/><path d="M176.06,259.26a3.74,3.74,0,1,1-3.73,3.73A3.73,3.73,0,0,1,176.06,259.26Z" style="fill:#1e1e1c"/><polygon points="174.47 167.5 174.47 223.92 160.92 223.92 147.38 223.92 147.38 167.5 147.38 161.68 160.92 161.68 174.47 161.68 174.47 167.5" style="fill:#f2f2f2"/><polygon points="160.92 348.01 173.47 425.01 148.39 425.01 160.92 348.01" style="fill:#2e75ba"/><path d="M169,289.59c2.88,2.83-2.91,6.06-7.49,6.06-5.92,0-8.89-3.1-8.89-3.1s-1.34-1.07,0-3.36,3.5.94,8.35.94S166.16,286.76,169,289.59Z" style="fill:#dc810b"/><polygon points="131.63 318.41 160.92 348.01 140.24 365.66 116.26 332.64 131.63 318.41" style="fill:#eaf6fb"/><polygon points="160.92 348.01 148.39 425.01 116.26 425.01 116.26 332.64 140.24 365.66 160.92 348.01" style="fill:#6fc8ec"/><path d="M145.5,246.68c4.58,0,10.36,3.23,7.5,6.06s-3.2-.54-8-.54-7,3.23-8.35.94,0-3.36,0-3.36S139.57,246.68,145.5,246.68Z" style="fill:#3f3f3f"/><path d="M144.89,259.26a3.74,3.74,0,1,1-3.74,3.73A3.72,3.72,0,0,1,144.89,259.26Z" style="fill:#1e1e1c"/><path d="M147.38,167.5v56.42h-42S103.61,176.6,147.38,167.5Z" style="fill:#d3d3d3"/><polygon points="124.61 241.38 121.32 262.88 108.92 241.38 124.61 241.38" style="fill:#3f3f3f"/><polygon points="116.26 332.64 116.26 425.01 96.91 425.01 87.96 392.98 105.44 371.71 87.96 350.86 116.26 332.64" style="fill:#183b6a"/><path d="M116.26,332.64,88,350.86l17.48,20.85L88,393l9,32H46.25s6.83-34.87,9.67-58.78,23-26.75,23-26.75Z" style="fill:#1665ae"/></svg>