<svg id="Layer_1" data-name="Layer 1" xmlns="http://www.w3.org/2000/svg" viewBox="0 0 500 500"><circle cx="230.07" cy="258.51" r="167.5" style="fill:#c2e4f3"/><path d="M412.28,197c6.08,5.15,17.86,27.65,11,35.41s-15,4.14-30-1.8-13.23-24-15.55-27.5-5.69-.16-8.28,1,3.37,15.55,4.44,22.56-2.18,11.4-6.77,16.8-2.39,21.71-2.39,21.71a63.18,63.18,0,0,1,16.93-5.84c8.85-1.51,24.05,21.43,30.53,33.25s5.05,43.08-13.48,44.5-10.32-24.38-12.86-26.16-13.08,6.42-24.59,8.46-20.2-8.87-24.29-9.71,3.09,25.32-3.57,36.23-22.77,6.13-27.84,5.92-7.65,2.82-15.91,4-16.7-2.58-16.7-2.58.74,4.31-3.95,8.88-8.22,5-14.66,3.88-7.06.65-13.6,3.77-15,5.82-30,3.67-15.54-17.22-19.34-20.75-8.64-.21-13.6-1.29-4.35-6.39-7.42-9.17-22.61.66-22.61.66-1.17,11.06-18.56,13.18S109.56,338.34,99,339.63s-5.62,9.08-7.81,15.24-3.27,5.86-8.34,7.32-3.22,18.46-12.73,19.63-9.73-7.44-12.59-13.6-6.06-4.93-12-9-10.08-5.71-11.06-13.78,2.37-12.69,6.59-15.93,12,1.69,16.41-3.27-4.23-10.62-6.33-13.73-.66-7.47-1.4-11.8-.15-6.28,4.57-7.27,6.53,3.61,7,12.59,11.55,10.69,5.79,23.24c-6.15,13.36-18.22,10.84-21.71,11.47s2.17,7.51,11.14,12.1,11.91,14.93,11.91,14.93,2.66-7.48,5.3-11.58a7.49,7.49,0,0,1,7.15-3.39,43,43,0,0,1-.68-12.53c.74-6,4.91-9.63,18.29-11.89s14.94,5.32,20,12.26,17.68,3.73,17.68,3.73a20,20,0,0,1,.33-7.6c1-3.9,7.77-5.15,7.77-5.15a138.8,138.8,0,0,1,24.32-.45c12.72,1,12.69,11.05,12.69,11.05s6.35-3.08,15.16.25,4.82,15.39,19.24,19.93,16.47-4.53,28.06-7.63,16.46.51,16.46.51,1.42-9,6.86-12.61,4.6-1.82,13.09.51,12.07-.85,19-2.32,21.08.57,26.24-1.94-2.58-29.74,7.13-37.85,17.19,4.83,28.91,6.13,20.47-13,31.31-5.08-.93,25.12,6.4,24.85S402.33,306.59,403,300s-16.95-25.25-20.67-28.15-11.93,7.13-22.66,3.6-6.24-25.28-6-31.62,4.45-6.63,8.22-11.9-2.74-19-2.88-23.63-1.9-15.52,14.17-18.12,18.81,16.4,20.36,25.67,20.51,9.71,20.51,9.71a86.91,86.91,0,0,0-6.62-16.44c-4.67-8.89-18.87-15.14-22.18-23.34s1.05-24.09,7.61-20.26,5.09,10.72,2.69,15.21S406.18,191.84,412.28,197Z" style="fill:#1574b9"/><circle cx="388.82" cy="153.72" r="4.9" style="fill:#1574b9"/><path d="M378.54,127.16c.14,4.6,10.54,5.43,9.28,10.62s-11.11,7-19-.61,6.11-29.12,1-29.54-6.06,12.29-8.53,16.16-7.45,7.84-16.45,16.71-.85,18.81-8.25,28.74S315.73,182.3,308,185.65s-5.32,16.74-11.17,22.07-8.34,4-17.2,3.79S270.46,219.34,256,218s-4.94-18.12-15-19.83-18.58,28.52-32.9,33.43-22.88-5-22.88-5-5.28,13.44-12.29,16.39-10.74-2-10.74-2-26.25,7-38.28-.36-5.88-25.76-11.66-30.09-13.38,12.55-22.48,25.84S70,248.43,64.07,249.57s-1.83,5.69-1.94,8.23,1.64,14.07-6.71,10.49c-8-3.45-8.71-19.74-1.58-26.7s19.42-6.16,26.42-10.79S100,191,114.66,195.92s11.71,28.83,13.92,34.86,27.86-.67,31.3-1.73,5.76,2.46,8.79,3.14,8.23-11.72,14.11-15.17,10,4.45,20.12,3,24.75-38.1,41.95-35,9.87,19,13.5,21,13.2-5.39,16.88-6.26,8.71.83,13.86,0,5.22-17.45,11.45-23.25,18.13-8.09,24.6-11.84S331,142,335,135s12.78-12.28,15.45-14.5,3.86-9.71,5.07-13.64,9.19-14.15,18.91-10.29S378.39,122.55,378.54,127.16Z" style="fill:#1574b9"/><circle cx="99.07" cy="272" r="10.97" style="fill:#e5332f"/><circle cx="216.49" cy="317.44" r="5.43" style="fill:#e5332f"/><circle cx="235.07" cy="223.51" r="8.5" style="fill:#e5332f"/><circle cx="378.22" cy="291.27" r="4.25" style="fill:#e5332f"/><path d="M112.57,269s54-7,78-15,36-20,36-20" style="fill:none;stroke:#e5332f;stroke-linecap:round;stroke-linejoin:round;stroke-width:4px"/><line x1="232.57" y1="236.01" x2="218.57" y2="308.01" style="fill:none;stroke:#e5332f;stroke-linecap:round;stroke-linejoin:round;stroke-width:4px"/><line x1="114.57" y1="275.01" x2="368.57" y2="288.01" style="fill:none;stroke:#e5332f;stroke-linecap:round;stroke-linejoin:round;stroke-width:4px"/><line x1="243.57" y1="232.01" x2="362.57" y2="282.01" style="fill:none;stroke:#e5332f;stroke-linecap:round;stroke-linejoin:round;stroke-width:4px"/><path d="M364.57,294s-94,1-135,19" style="fill:none;stroke:#e5332f;stroke-linecap:round;stroke-linejoin:round;stroke-width:4px"/><line x1="112.57" y1="281.01" x2="203.57" y2="315.01" style="fill:none;stroke:#e5332f;stroke-linecap:round;stroke-linejoin:round;stroke-width:4px"/><line x1="83.57" y1="269.01" x2="36.57" y2="254.01" style="fill:none;stroke:#e5332f;stroke-linecap:round;stroke-linejoin:round;stroke-width:4px"/><line x1="83.57" y1="275.01" x2="55.57" y2="282.01" style="fill:none;stroke:#e5332f;stroke-linecap:round;stroke-linejoin:round;stroke-width:4px"/><line x1="225.57" y1="328.01" x2="274.57" y2="371.01" style="fill:none;stroke:#e5332f;stroke-linecap:round;stroke-linejoin:round;stroke-width:4px"/><line x1="85.94" y1="280.01" x2="74.64" y2="288.01" style="fill:none;stroke:#e5332f;stroke-linecap:round;stroke-linejoin:round;stroke-width:4px"/><circle cx="83.57" cy="319.51" r="5" style="fill:#e5332f"/><line x1="78.3" y1="325.34" x2="45.07" y2="364.38" style="fill:none;stroke:#e5332f;stroke-linecap:round;stroke-linejoin:round;stroke-width:4px"/><line x1="90.7" y1="315.01" x2="358.48" y2="221.26" style="fill:none;stroke:#e5332f;stroke-linecap:round;stroke-linejoin:round;stroke-width:4px"/><line x1="93.42" y1="285.27" x2="86.43" y2="310.27" style="fill:none;stroke:#e5332f;stroke-linecap:round;stroke-linejoin:round;stroke-width:4px"/><line x1="75.93" y1="319.51" x2="52.52" y2="325.34" style="fill:none;stroke:#e5332f;stroke-linecap:round;stroke-linejoin:round;stroke-width:4px"/><line x1="83.57" y1="328.4" x2="75.93" y2="361.32" style="fill:none;stroke:#e5332f;stroke-linecap:round;stroke-linejoin:round;stroke-width:4px"/><line x1="211.06" y1="310.52" x2="109.59" y2="236.01" style="fill:none;stroke:#e5332f;stroke-linecap:round;stroke-linejoin:round;stroke-width:4px"/><circle cx="103.3" cy="231.52" r="5" style="fill:#e5332f"/><line x1="102.31" y1="239.12" x2="100.12" y2="258.51" style="fill:none;stroke:#e5332f;stroke-linecap:round;stroke-linejoin:round;stroke-width:4px"/><line x1="70.37" y1="227.61" x2="89.86" y2="260.34" style="fill:none;stroke:#e5332f;stroke-linecap:round;stroke-linejoin:round;stroke-width:4px"/><line x1="91.6" y1="321.23" x2="204.5" y2="319.51" style="fill:none;stroke:#e5332f;stroke-linecap:round;stroke-linejoin:round;stroke-width:4px"/><polygon points="334.75 307.67 334.75 336.26 323.36 336.26 321.1 336.26 321.1 307.5 334.75 307.67" style="fill:#6fc8ec"/><path d="M400.89,403.82V422.5h-6.31c0-.43.05-.69.05-.69v-18Z" style="fill:#1665ae"/><polygon points="400.89 360.58 400.89 403.82 394.63 403.82 394.63 392.04 394.63 360.58 400.89 360.58" style="fill:#6fc8ec"/><path d="M394.63,403.82v18s0,.26-.05.69c-.28,2.69-2,12.36-12.94,12.36C369,434.85,370,422.5,370,422.5v-27c2,9.23,12.33,9.38,12.33,9.38v.24s12.33-.61,12.33-13.08Z" style="fill:#2e75ba"/><path d="M394.63,360.58V392c0,12.47-12.33,13.08-12.33,13.08v-.24S372,404.73,370,395.5V360.58s.34-11.36,12.32-11.36S394.63,360.58,394.63,360.58Z" style="fill:#41b7ea"/><path d="M370,403.82v18H358.35s-7.68,19.6-35.16,19.6-33.91-19.6-33.91-19.6H276.39v-18h12.33s8,7.94,34.64,7.94,34.53-7.94,34.53-7.94H370Z" style="fill:#1665ae"/><path d="M370,395.5v8.32H357.89s-7.89,7.94-34.53,7.94-34.64-7.94-34.64-7.94H276.39V360.57H289a36.56,36.56,0,0,1,7.32-11.8,6.73,6.73,0,0,0,1.35.15h52.8a40.5,40.5,0,0,1,8.15,12.65H370V395.5Z" style="fill:#6fc8ec"/><path d="M351,336.26a6.33,6.33,0,0,1,0,12.66h-.49a36.06,36.06,0,0,0-27.15-11.61v-1.05H351Z" style="fill:#ee9411"/><path d="M350.51,348.92h-52.8a6.73,6.73,0,0,1-1.35-.15c5.26-5.76,13.8-11.46,27-11.46A36.06,36.06,0,0,1,350.51,348.92Z" style="fill:#ee9411"/><path d="M334.75,303.28v4.45l-13.65-.18v28.71h-8.66V303.18H323v.1Z" style="fill:#2e75ba"/><path d="M323.36,336.26v1.05c-13.2,0-21.74,5.7-27,11.46a6.36,6.36,0,0,1-5-6.18,6.35,6.35,0,0,1,6.33-6.33h25.65Z" style="fill:#ee9411"/><path d="M276.39,403.82v18s-.33,13.05-13,13.05-11.65-12.35-11.65-12.35v-27c2,9.23,12.32,9.38,12.32,9.38v.24s12.33-.61,12.33-13.08Z" style="fill:#2e75ba"/><path d="M276.39,360.57V392c0,12.47-12.33,13.08-12.33,13.08v-.24s-10.33-.15-12.32-9.38V360.57s.33-11.36,12.31-11.36S276.39,360.57,276.39,360.57Z" style="fill:#41b7ea"/><polygon points="251.75 403.82 251.75 422.5 230.77 422.5 230.77 403.82 251.73 403.82 251.75 403.82" style="fill:#1665ae"/><polygon points="251.75 395.49 251.75 403.82 251.73 403.82 230.77 403.82 230.77 360.57 251.75 360.57 251.75 394.72 251.75 395.49" style="fill:#6fc8ec"/><rect x="306.95" y="296.69" width="32.97" height="6.87" rx="3.44" style="fill:#2e75ba"/><path d="M370,278.5v5.95a6.51,6.51,0,0,1-6.5,6.5H316.74s-7.9,0-7.9-8.66A10.14,10.14,0,0,1,316.46,272h47.07A6.51,6.51,0,0,1,370,278.5Z" style="fill:#f1b26f"/><path d="M322.65,299.53H293.13c-7.58,0-5.89-8.58-5.89-8.58h71.08V291s1.69,8.58-5.89,8.58H322.65Z" style="fill:#ee9411"/><path d="M316.74,291h-33.9a6.51,6.51,0,0,1-6.49-6.5V278.5a6.51,6.51,0,0,1,6.49-6.5h33.62a10.14,10.14,0,0,0-7.62,10.29C308.84,291,316.74,291,316.74,291Z" style="fill:#ee9411"/><rect x="299.57" y="321.78" width="48.05" height="12.96" rx="6.48" style="fill:#ee9411"/><line x1="226.57" y1="307.5" x2="362.57" y2="160.57" style="fill:none;stroke:#e5332f;stroke-linecap:round;stroke-linejoin:round;stroke-width:4px"/></svg>